<?xml version="1.0" standalone="no"?>
<!DOCTYPE svg PUBLIC "-//W3C//DTD SVG 20010904//EN"
 "http://www.w3.org/TR/2001/REC-SVG-20010904/DTD/svg10.dtd">
<svg version="1.0" xmlns="http://www.w3.org/2000/svg"
 width="512.000000pt" height="512.000000pt" viewBox="0 0 512.000000 512.000000"
 preserveAspectRatio="xMidYMid meet">

<g transform="translate(0.000000,512.000000) scale(0.100000,-0.100000)"
fill="white" stroke="none">
<path d="M2161 5105 c-150 -33 -254 -83 -363 -175 -117 -97 -209 -237 -255
-385 -27 -90 -27 -91 -28 -391 l0 -300 27 -41 c41 -62 90 -88 168 -88 78 0
127 26 168 88 l27 40 6 276 c5 256 7 280 28 334 43 110 132 195 245 234 48 17
118 18 1136 18 l1085 0 58 -23 c111 -45 195 -133 234 -246 17 -48 18 -146 18
-1886 0 -1740 -1 -1838 -18 -1886 -39 -113 -123 -201 -234 -246 l-58 -23
-1085 0 c-1018 0 -1088 1 -1136 18 -113 39 -202 124 -245 234 -21 54 -23 78
-28 333 -6 267 -7 276 -30 313 -13 21 -42 50 -64 65 -34 23 -52 27 -107 27
-55 0 -73 -4 -107 -27 -22 -15 -51 -44 -64 -65 -24 -38 -24 -39 -24 -338 1
-299 1 -300 28 -390 79 -258 283 -462 542 -542 l90 -28 1140 0 1140 0 90 28
c259 80 462 283 542 542 l28 90 0 1895 0 1895 -28 90 c-80 259 -283 462 -542
542 l-90 28 -1115 2 c-924 1 -1126 -1 -1179 -12z"/>
<path d="M2345 3412 c-43 -15 -87 -48 -113 -86 -23 -33 -27 -50 -27 -105 0
-86 17 -110 214 -306 l151 -150 -1218 -5 -1218 -5 -41 -27 c-63 -41 -88 -90
-88 -169 0 -54 5 -72 27 -106 15 -22 44 -51 65 -64 l38 -24 1218 -5 1217 -5
-151 -150 c-197 -196 -214 -220 -214 -306 0 -76 24 -121 89 -167 33 -23 50
-27 106 -27 57 0 73 4 107 28 22 15 153 141 291 281 231 232 254 259 287 329
69 145 69 289 0 434 -33 70 -56 97 -287 329 -138 140 -268 265 -289 279 -38
27 -124 41 -164 27z"/>
</g>
</svg>
