<svg xmlns="http://www.w3.org/2000/svg" width="36" height="30" viewBox="0 0 36 30"><path fill="white" fill-rule="evenodd" d="M28.202 13.052c.255-.793.39-1.622.39-2.478C28.592 4.652 22.135 0 14.296 0 6.456 0 0 4.652 0 10.574c0 3.148 1.846 6.031 4.935 8.005-.005.402-.005 4.041-.005 4.041 0 1.372 1.305 1.998 2.37 1.123 0 0 2.557-2.101 3.538-2.905a19.489 19.489 0 0 0 5.568.195c.771 3.35 4.653 5.798 9.228 5.798.234 0 .467-.007.698-.02.495.405 2.846 2.342 2.846 2.342 1.066.875 2.371.249 2.371-1.123 0 0 .01-2.29.01-2.77C33.696 23.956 35 21.986 35 19.808c0-3.273-2.902-5.932-6.798-6.757zm-2.005-.253c.276-.712.423-1.459.423-2.225 0-4.672-5.462-8.607-12.324-8.607-6.863 0-12.324 3.935-12.324 8.607 0 2.549 1.628 4.957 4.442 6.602l.487.285v4.08l3.042-2.517.365-.3.464.096a17.556 17.556 0 0 0 5.546.244c.494-3.592 4.525-6.277 9.316-6.277.189 0 .376.004.563.012zm-.563 12.064c-4.14 0-7.395-2.344-7.395-5.054 0-2.71 3.255-5.055 7.395-5.055s7.394 2.345 7.394 5.055c0 1.555-1.073 3.041-2.924 4.013l-.527.276v.594l.012 2.25-2.31-1.898-.311-.256-.402.035c-.307.027-.618.04-.932.04zm-3.45-4.207a.985.985 0 1 0-.987-.984c0 .543.442.984.986.984zm3.45 0a.985.985 0 1 0-.986-.984c0 .543.441.984.986.984zm-16.76-7.87a1.97 1.97 0 0 0 1.971-1.966 1.97 1.97 0 0 0-1.972-1.968 1.97 1.97 0 0 0-1.972 1.968 1.97 1.97 0 0 0 1.972 1.967zm5.915 0a1.97 1.97 0 0 0 1.972-1.966 1.97 1.97 0 0 0-1.972-1.968 1.97 1.97 0 0 0-1.972 1.968 1.97 1.97 0 0 0 1.972 1.967zm14.296 7.87a.985.985 0 1 0-.986-.984c0 .543.441.984.986.984zm-8.38-7.87a1.97 1.97 0 0 0 1.971-1.966 1.97 1.97 0 0 0-1.972-1.968 1.97 1.97 0 0 0-1.972 1.968 1.97 1.97 0 0 0 1.972 1.967z"></path></svg>